<?xml version="1.0" standalone="no"?>
<svg viewBox="0 0 200 200" xmlns="http://www.w3.org/2000/svg">
  <path fill="#F2F4F8" d="M41.6,-66.8C52.4,-57.8,58.6,-43.7,60.3,-30.4C62,-17,59.2,-4.5,50.8,2.5C42.4,9.6,28.4,11,20.4,14.6C12.5,18.1,10.6,23.8,4.8,33.1C-0.9,42.5,-10.5,55.5,-20.6,58C-30.6,60.5,-41.1,52.6,-44.1,42.1C-47.1,31.6,-42.6,18.6,-35.2,10.6C-27.8,2.6,-17.4,-0.3,-11.1,-1.4C-4.9,-2.5,-2.8,-1.7,-1.6,-15.2C-0.4,-28.6,-0.2,-56.3,7.6,-68.1C15.4,-79.9,30.8,-75.9,41.6,-66.8Z" transform="translate(100 100)" />
</svg>
