<?xml version="1.0" standalone="no"?>
<svg viewBox="0 0 200 200" xmlns="http://www.w3.org/2000/svg">
  <path fill="#F2F4F8" d="M37.3,-67C39.2,-56.7,25.3,-31,32.6,-14.9C39.8,1.1,68.1,7.5,67,9.1C65.9,10.6,35.3,7.4,23.5,19.6C11.7,31.8,18.7,59.6,17.2,61.1C15.8,62.7,5.9,38.2,-0.3,25.3C-6.5,12.4,-9.1,11.2,-22.4,11C-35.8,10.7,-60,11.4,-67.6,5.4C-75.1,-0.6,-66.1,-13.4,-56.4,-22.1C-46.7,-30.8,-36.3,-35.6,-26.8,-42.4C-17.3,-49.2,-8.6,-58,4.5,-65C17.7,-72.1,35.3,-77.3,37.3,-67Z" transform="translate(100 100)" />
</svg>
